<?xml version="1.0" standalone="no"?>
<!DOCTYPE svg PUBLIC "-//W3C//DTD SVG 20010904//EN"
 "http://www.w3.org/TR/2001/REC-SVG-20010904/DTD/svg10.dtd">
<svg version="1.0" xmlns="http://www.w3.org/2000/svg"
 width="1342.000000pt" height="326.000000pt" viewBox="0 0 1342.000000 326.000000"
 preserveAspectRatio="xMidYMid meet">

<g transform="translate(0.000000,326.000000) scale(0.100000,-0.100000)"
fill="#FFFFFF" stroke="none">
<path d="M1386 3245 c-253 -41 -502 -142 -699 -282 -116 -83 -277 -242 -369
-363 -134 -178 -238 -412 -289 -648 -22 -103 -40 -462 -23 -462 5 0 301 292
659 648 637 636 651 649 725 682 138 63 316 51 441 -28 25 -16 352 -334 726
-706 457 -454 683 -672 686 -662 14 37 19 241 7 356 -27 286 -133 571 -297
801 -86 120 -262 295 -383 381 -176 125 -405 223 -626 269 -132 27 -430 35
-558 14z"/>
<path d="M7331 2984 c-123 -33 -196 -114 -260 -290 -16 -44 -136 -428 -266
-854 -131 -426 -240 -781 -242 -787 -4 -10 38 -13 190 -13 l195 0 16 48 c8 26
29 97 46 157 17 61 40 140 51 178 l20 67 374 0 374 0 17 -57 c9 -32 38 -132
64 -223 l47 -165 198 -3 c163 -2 196 0 192 11 -3 8 -116 376 -251 818 -286
934 -309 992 -422 1070 -81 56 -227 74 -343 43z m146 -352 c7 -4 19 -23 27
-42 13 -33 236 -790 236 -804 0 -3 -129 -6 -286 -6 l-286 0 6 26 c23 92 227
778 237 796 19 36 41 46 66 30z"/>
<path d="M10511 2986 c-198 -38 -330 -111 -423 -233 -67 -90 -90 -156 -96
-286 -9 -196 37 -327 153 -435 83 -79 181 -125 338 -163 278 -66 365 -91 427
-120 105 -49 140 -93 140 -176 0 -78 -18 -124 -65 -169 -53 -51 -110 -72 -244
-86 -241 -25 -396 40 -540 226 l-43 55 -121 -101 c-67 -56 -126 -105 -131
-109 -30 -26 194 -247 305 -301 256 -126 685 -127 948 -3 53 26 91 53 135 99
103 107 146 221 146 391 0 173 -40 276 -144 372 -97 90 -222 138 -562 217
-263 61 -354 130 -354 267 0 84 17 129 69 181 65 65 127 82 277 76 105 -4 117
-7 186 -41 44 -22 103 -64 150 -107 l77 -71 113 92 c157 129 144 113 123 146
-33 50 -109 125 -167 165 -126 85 -248 117 -468 123 -108 3 -177 0 -229 -9z"/>
<path d="M12271 2985 c-107 -30 -172 -92 -232 -219 -28 -60 -368 -1145 -535
-1708 -5 -17 9 -18 190 -18 l195 0 10 38 c6 20 35 120 65 222 l53 185 375 3
375 2 64 -222 65 -223 197 -3 196 -2 -9 27 c-5 16 -113 368 -240 783 -127 415
-240 782 -252 815 -56 159 -130 258 -227 303 -69 32 -208 40 -290 17z m153
-364 c13 -14 256 -811 256 -838 0 -2 -128 -3 -285 -3 -221 0 -285 3 -285 13 0
6 54 194 119 416 116 395 130 431 166 431 7 0 20 -9 29 -19z"/>
<path d="M4027 2963 c-4 -3 -7 -438 -7 -965 l0 -958 195 0 195 0 0 965 0 965
-188 0 c-104 0 -192 -3 -195 -7z"/>
<path d="M4827 2963 c-4 -3 -7 -438 -7 -965 l0 -958 185 0 185 0 0 648 c1 628
1 646 19 612 10 -19 137 -311 282 -648 l264 -614 195 4 c223 5 260 14 335 80
25 22 57 63 71 90 53 104 54 120 54 971 l0 787 -182 -2 -183 -3 -5 -778 -5
-779 -24 -19 c-13 -10 -28 -19 -35 -19 -6 0 -166 354 -355 788 -190 433 -349
793 -354 800 -7 9 -64 12 -222 12 -116 0 -215 -3 -218 -7z"/>
<path d="M8145 2943 c26 -106 459 -1584 480 -1639 52 -138 122 -227 208 -265
73 -32 232 -39 312 -13 107 33 193 134 249 292 33 93 476 1616 476 1637 0 14
-22 15 -192 13 l-192 -3 -213 -774 c-117 -426 -220 -784 -228 -797 -22 -34
-61 -32 -79 4 -8 15 -107 365 -220 778 -114 412 -211 759 -216 772 -9 22 -12
22 -201 22 l-191 0 7 -27z"/>
<path d="M1524 2568 c-21 -7 -268 -247 -739 -718 l-709 -709 13 -43 c23 -74
85 -210 136 -296 l49 -82 546 544 c630 630 593 601 765 601 161 0 125 29 780
-626 314 -313 573 -569 576 -569 18 0 142 215 189 330 l31 74 -733 734 c-403
403 -745 740 -760 748 -37 19 -106 25 -144 12z"/>
<path d="M1009 1044 l-549 -548 33 -34 c46 -48 150 -132 237 -190 l75 -50 305
303 c340 339 354 349 470 349 118 0 129 -8 486 -366 l322 -320 63 37 c80 47
224 153 266 197 l33 34 -563 562 c-459 459 -568 563 -595 568 -33 7 -38 2
-583 -542z"/>
<path d="M6566 716 c-31 -42 -32 -46 -6 -46 12 0 40 18 63 40 l42 39 -36 1
c-30 0 -41 -6 -63 -34z"/>
<path d="M4613 635 c-24 -10 -35 -24 -44 -54 -21 -72 19 -122 116 -145 69 -17
97 -63 59 -100 -20 -20 -93 -21 -141 -1 -46 19 -44 20 -37 -12 9 -39 13 -41
73 -53 108 -20 181 21 181 103 0 60 -20 82 -97 108 -84 27 -93 34 -93 70 0 40
37 55 100 42 25 -6 53 -13 63 -18 14 -6 17 -2 17 19 0 21 -7 30 -35 42 -43 18
-120 18 -162 -1z"/>
<path d="M5663 635 c-52 -22 -68 -65 -68 -180 0 -109 10 -138 60 -171 31 -20
110 -23 153 -5 26 11 32 19 32 42 0 29 0 29 -30 14 -45 -23 -97 -19 -125 10
-23 22 -25 32 -25 110 0 48 4 95 10 105 17 32 71 43 121 26 24 -8 45 -13 47
-11 3 2 2 15 -2 29 -11 43 -106 60 -173 31z"/>
<path d="M5983 635 c-53 -23 -67 -56 -71 -164 -3 -78 0 -102 15 -130 28 -54
65 -75 128 -75 65 1 105 24 105 59 0 24 -1 24 -35 9 -49 -20 -90 -17 -120 9
-23 19 -28 33 -32 87 -11 147 46 197 168 146 13 -6 15 -1 11 23 -3 22 -12 32
-35 40 -41 15 -95 13 -134 -4z"/>
<path d="M6480 633 c-53 -27 -70 -71 -70 -178 0 -99 15 -138 66 -172 35 -22
118 -22 161 0 58 31 83 116 68 232 -5 45 -14 65 -39 93 -30 32 -39 36 -92 39
-43 3 -68 -1 -94 -14z m135 -58 c23 -22 25 -32 25 -118 0 -80 -3 -96 -20 -115
-27 -28 -88 -30 -121 -3 -21 17 -24 30 -27 100 -3 49 1 93 8 110 22 53 94 68
135 26z"/>
<path d="M7915 640 c-11 -4 -31 -20 -45 -35 -23 -24 -25 -36 -28 -129 -4 -122
9 -166 60 -192 37 -20 109 -22 151 -6 20 9 27 18 27 38 0 21 -4 25 -17 19 -68
-26 -127 -17 -148 25 -23 45 -20 170 5 203 26 33 67 41 119 23 l42 -14 -3 26
c-2 16 -13 31 -28 39 -28 14 -104 16 -135 3z"/>
<path d="M11665 641 c-36 -15 -58 -49 -58 -89 0 -58 16 -78 80 -101 92 -33
108 -44 111 -76 3 -19 -2 -33 -14 -42 -24 -17 -96 -17 -139 1 l-35 15 0 -28
c0 -22 6 -31 28 -39 75 -29 156 -21 198 19 19 17 24 33 24 69 0 63 -19 85 -97
111 -85 27 -95 35 -91 73 4 42 52 55 126 33 l52 -15 0 25 c0 18 -9 28 -35 39
-37 15 -118 18 -150 5z"/>
<path d="M4020 455 l0 -185 30 0 30 0 0 185 0 185 -30 0 -30 0 0 -185z"/>
<path d="M4190 456 l0 -186 30 0 29 0 3 147 3 146 64 -146 65 -147 43 0 43 0
0 185 0 185 -30 0 -29 0 -3 -142 -3 -141 -61 139 -61 139 -47 3 -46 3 0 -185z"/>
<path d="M4912 458 l3 -183 30 0 c30 0 30 1 33 58 l3 57 59 0 c105 0 140 34
140 135 0 49 -4 60 -29 86 -29 28 -32 29 -135 29 l-106 0 2 -182z m192 116
c10 -9 16 -33 16 -59 0 -55 -25 -75 -92 -75 l-48 0 0 75 0 75 54 0 c36 0 60
-5 70 -16z"/>
<path d="M5270 455 l0 -185 120 0 120 0 0 25 c0 25 -1 25 -90 25 l-90 0 0 55
0 54 88 3 c85 3 87 3 87 28 0 25 -2 25 -87 28 l-88 3 0 49 0 50 90 0 c89 0 90
0 90 25 l0 25 -120 0 -120 0 0 -185z"/>
<path d="M6250 455 l0 -185 30 0 30 0 0 185 0 185 -30 0 -30 0 0 -185z"/>
<path d="M6800 455 l0 -185 30 0 29 0 3 151 3 152 66 -149 65 -149 45 0 44 0
3 183 2 182 -30 0 -29 0 -3 -147 -3 -148 -65 148 -65 147 -47 0 -48 0 0 -185z"/>
<path d="M7320 637 c0 -2 27 -61 60 -130 51 -107 60 -135 60 -182 0 -54 0 -55
30 -55 l30 0 0 60 c0 45 7 74 26 112 14 28 41 84 59 125 l34 73 -33 0 c-31 0
-34 -3 -72 -90 -21 -49 -42 -90 -45 -90 -3 0 -24 41 -46 90 -39 85 -43 90 -72
90 -17 0 -31 -2 -31 -3z"/>
<path d="M8255 628 c-12 -36 -105 -346 -105 -352 0 -3 13 -6 29 -6 27 0 31 5
43 47 l14 48 71 3 71 3 12 -51 c11 -46 14 -50 41 -50 17 0 29 5 29 13 0 6 -24
89 -53 182 l-53 170 -47 3 c-32 2 -49 -1 -52 -10z m83 -125 l20 -73 -49 0
c-29 0 -49 5 -49 11 0 30 44 159 51 147 4 -7 16 -46 27 -85z"/>
<path d="M8550 455 l0 -186 113 3 c108 3 112 4 115 25 3 22 1 23 -82 23 l-86
0 0 160 0 160 -30 0 -30 0 0 -185z"/>
<path d="M8860 455 l0 -185 30 0 30 0 0 185 0 185 -30 0 -30 0 0 -185z"/>
<path d="M9030 455 l0 -185 83 1 c103 0 145 14 174 58 20 29 23 47 23 123 0
156 -32 188 -189 188 l-91 0 0 -185z m195 110 c22 -22 25 -32 25 -104 0 -105
-18 -129 -102 -138 l-58 -6 0 137 0 136 55 0 c46 0 60 -4 80 -25z"/>
<path d="M9471 608 c-32 -102 -101 -330 -101 -334 0 -2 13 -4 30 -4 27 0 31 5
43 48 l14 47 71 3 71 3 13 -48 c12 -43 17 -48 45 -51 l31 -3 -34 113 c-19 62
-44 146 -56 186 l-21 72 -48 0 c-45 0 -48 -2 -58 -32z m84 -87 c9 -36 19 -71
22 -78 4 -10 -8 -13 -47 -13 -45 0 -52 2 -47 18 2 9 13 47 23 84 10 38 21 65
25 60 3 -4 14 -36 24 -71z"/>
<path d="M9770 456 l0 -186 80 0 c93 0 151 19 176 58 22 34 31 174 15 224 -6
19 -23 46 -37 59 -23 22 -36 24 -130 27 l-104 4 0 -186z m189 115 c25 -25 35
-78 28 -149 -8 -72 -27 -91 -100 -99 l-57 -6 0 137 0 136 55 0 c41 0 60 -5 74
-19z"/>
<path d="M10300 455 l0 -185 30 0 30 0 0 185 0 185 -30 0 -30 0 0 -185z"/>
<path d="M10470 456 l0 -186 30 0 29 0 3 145 3 146 64 -146 64 -145 43 0 44 0
0 185 0 185 -30 0 -29 0 -3 -142 -3 -143 -62 140 -62 140 -45 3 -46 3 0 -185z"/>
<path d="M10860 455 l0 -187 98 4 c157 6 186 40 180 205 -3 89 -4 94 -36 125
-32 32 -34 33 -137 36 l-105 4 0 -187z m191 116 c22 -18 24 -27 24 -110 0
-112 -12 -129 -98 -138 l-57 -6 0 137 0 136 54 0 c38 0 61 -6 77 -19z"/>
<path d="M11230 510 c0 -152 14 -201 64 -227 39 -20 111 -22 154 -4 55 23 66
57 70 219 l4 142 -36 0 -36 0 0 -138 c0 -165 -7 -182 -74 -182 -71 0 -76 13
-76 178 l0 142 -35 0 -35 0 0 -130z"/>
<path d="M11920 615 c0 -24 3 -25 55 -25 l55 0 0 -160 0 -160 30 0 30 0 0 160
0 160 55 0 c52 0 55 1 55 25 l0 25 -140 0 -140 0 0 -25z"/>
<path d="M12290 455 l0 -185 30 0 30 0 0 70 0 70 55 0 c64 0 79 -15 90 -93 6
-44 8 -47 36 -47 24 0 29 4 29 23 0 42 -28 130 -44 139 -14 8 -12 12 12 33 23
20 27 31 27 75 0 44 -4 55 -28 76 -26 22 -37 24 -133 24 l-104 0 0 -185z m188
123 c7 -7 12 -31 12 -55 0 -51 -16 -63 -89 -63 l-51 0 0 65 0 65 58 0 c32 0
63 -5 70 -12z"/>
<path d="M12652 458 l3 -183 30 0 30 0 3 183 2 182 -35 0 -35 0 2 -182z"/>
<path d="M12870 508 c-23 -73 -48 -153 -56 -177 -19 -59 -18 -61 15 -61 27 0
31 5 43 47 l14 48 71 3 71 3 12 -51 c11 -46 14 -50 41 -50 16 0 29 3 29 8 1 4
-23 87 -52 184 l-53 178 -47 0 -47 0 -41 -132z m118 -5 l20 -73 -49 0 c-27 0
-49 5 -49 10 0 28 45 159 51 148 4 -7 16 -46 27 -85z"/>
<path d="M13200 455 l0 -185 110 0 110 0 0 25 c0 25 -1 25 -80 25 l-80 0 0
160 0 160 -30 0 -30 0 0 -185z"/>
<path d="M1336 341 l-249 -249 54 -15 c222 -65 421 -87 613 -69 117 11 305 45
333 61 8 4 -80 99 -245 264 l-257 257 -249 -249z"/>
</g>
</svg>
