<?xml version="1.0" standalone="no"?>
<!DOCTYPE svg PUBLIC "-//W3C//DTD SVG 20010904//EN"
 "http://www.w3.org/TR/2001/REC-SVG-20010904/DTD/svg10.dtd">
<svg version="1.0" xmlns="http://www.w3.org/2000/svg"
 width="1342.000000pt" height="326.000000pt" viewBox="0 0 1342.000000 326.000000"
 preserveAspectRatio="xMidYMid meet">

<g transform="translate(0.000000,326.000000) scale(0.100000,-0.100000)"
fill="#000000" stroke="none">
<path d="M7352 2989 c-62 -12 -139 -57 -178 -104 -70 -86 -110 -198 -363
-1025 l-249 -815 190 -3 c105 -1 193 0 196 2 2 3 33 103 67 223 l62 218 376 3
376 2 20 -67 c11 -38 40 -137 65 -221 24 -85 46 -156 49 -158 2 -2 90 -3 194
-2 l191 3 -253 823 c-265 867 -295 949 -374 1030 -22 23 -57 50 -78 60 -75 38
-192 51 -291 31z m132 -362 c11 -8 57 -148 137 -422 65 -225 119 -413 119
-417 0 -4 -128 -8 -285 -8 -157 0 -285 4 -285 9 0 4 54 192 119 417 130 444
138 462 195 421z"/>
<path d="M10525 2986 c-282 -44 -478 -203 -524 -424 -27 -131 -2 -322 56 -421
80 -137 213 -222 426 -272 252 -59 308 -73 385 -101 57 -21 97 -43 129 -72 46
-42 47 -45 51 -110 11 -176 -97 -259 -353 -273 -124 -6 -210 9 -294 51 -57 30
-144 107 -197 176 -21 28 -42 50 -47 50 -10 0 -250 -198 -255 -210 -2 -4 19
-34 46 -66 196 -236 381 -314 737 -315 313 0 523 70 637 214 83 106 118 211
118 362 0 199 -63 325 -211 424 -81 54 -138 74 -407 141 -284 72 -369 108
-413 178 -25 39 -29 56 -29 114 0 82 18 129 68 181 55 56 126 79 247 79 160 0
243 -36 380 -163 l63 -60 119 97 c65 53 122 101 127 105 14 12 -39 83 -109
146 -67 60 -188 125 -280 148 -133 34 -328 43 -470 21z"/>
<path d="M12291 2989 c-126 -25 -207 -107 -275 -279 -14 -36 -134 -418 -266
-850 -132 -432 -243 -793 -246 -802 -5 -17 8 -18 189 -18 l194 0 32 108 c17
59 46 159 64 222 l33 115 376 3 377 2 10 -37 c6 -21 35 -121 64 -223 l54 -185
196 -3 196 -2 -14 42 c-8 24 -118 382 -245 795 -240 784 -264 859 -307 933
-33 58 -99 127 -143 150 -69 35 -193 48 -289 29z m134 -369 c14 -16 254 -798
255 -832 0 -5 -130 -8 -288 -8 l-289 0 119 407 c65 224 125 418 134 430 18 28
45 29 69 3z"/>
<path d="M4020 2000 l0 -960 195 0 195 0 0 960 0 960 -195 0 -195 0 0 -960z"/>
<path d="M4830 2000 l0 -960 180 0 180 0 0 648 c0 414 4 642 10 632 5 -8 132
-300 282 -648 l273 -634 195 5 c223 5 261 14 334 78 25 22 56 63 70 92 55 111
56 126 56 970 l0 777 -180 0 -180 0 0 -724 c0 -440 -4 -744 -10 -777 -10 -52
-36 -89 -64 -89 -7 0 -169 358 -360 795 l-349 795 -218 0 -219 0 0 -960z"/>
<path d="M8144 2943 c3 -10 109 -375 236 -811 127 -437 242 -821 256 -855 54
-128 115 -200 204 -241 38 -17 65 -21 165 -21 105 0 127 3 172 24 88 39 170
146 220 285 14 39 454 1552 468 1609 l7 27 -193 0 -194 0 -213 -778 c-118
-427 -221 -785 -229 -794 -22 -25 -60 -22 -77 5 -7 12 -107 362 -220 777 -114
415 -210 763 -212 773 -5 15 -23 17 -200 17 -181 0 -195 -1 -190 -17z"/>
</g>
</svg>
